<svg width="32" height="32" viewBox="0 0 32 32" fill="none" xmlns="http://www.w3.org/2000/svg">
<path d="M5.3335 6.66659C5.3335 6.31296 5.47397 5.97383 5.72402 5.72378C5.97407 5.47373 6.31321 5.33325 6.66683 5.33325H12.0002C12.3538 5.33325 12.6929 5.47373 12.943 5.72378C13.193 5.97383 13.3335 6.31296 13.3335 6.66659V11.9999C13.3335 12.3535 13.193 12.6927 12.943 12.9427C12.6929 13.1928 12.3538 13.3333 12.0002 13.3333H6.66683C6.31321 13.3333 5.97407 13.1928 5.72402 12.9427C5.47397 12.6927 5.3335 12.3535 5.3335 11.9999V6.66659ZM18.6668 6.66659C18.6668 6.31296 18.8073 5.97383 19.0574 5.72378C19.3074 5.47373 19.6465 5.33325 20.0002 5.33325H25.3335C25.6871 5.33325 26.0263 5.47373 26.2763 5.72378C26.5264 5.97383 26.6668 6.31296 26.6668 6.66659V11.9999C26.6668 12.3535 26.5264 12.6927 26.2763 12.9427C26.0263 13.1928 25.6871 13.3333 25.3335 13.3333H20.0002C19.6465 13.3333 19.3074 13.1928 19.0574 12.9427C18.8073 12.6927 18.6668 12.3535 18.6668 11.9999V6.66659ZM5.3335 19.9999C5.3335 19.6463 5.47397 19.3072 5.72402 19.0571C5.97407 18.8071 6.31321 18.6666 6.66683 18.6666H12.0002C12.3538 18.6666 12.6929 18.8071 12.943 19.0571C13.193 19.3072 13.3335 19.6463 13.3335 19.9999V25.3333C13.3335 25.6869 13.193 26.026 12.943 26.2761C12.6929 26.5261 12.3538 26.6666 12.0002 26.6666H6.66683C6.31321 26.6666 5.97407 26.5261 5.72402 26.2761C5.47397 26.026 5.3335 25.6869 5.3335 25.3333V19.9999ZM18.6668 19.9999C18.6668 19.6463 18.8073 19.3072 19.0574 19.0571C19.3074 18.8071 19.6465 18.6666 20.0002 18.6666H25.3335C25.6871 18.6666 26.0263 18.8071 26.2763 19.0571C26.5264 19.3072 26.6668 19.6463 26.6668 19.9999V25.3333C26.6668 25.6869 26.5264 26.026 26.2763 26.2761C26.0263 26.5261 25.6871 26.6666 25.3335 26.6666H20.0002C19.6465 26.6666 19.3074 26.5261 19.0574 26.2761C18.8073 26.026 18.6668 25.6869 18.6668 25.3333V19.9999Z" stroke="#4C93EE" stroke-width="2.66667" stroke-linecap="round" stroke-linejoin="round"/>
</svg>
