<svg width="32" height="32" viewBox="0 0 32 32" fill="none" xmlns="http://www.w3.org/2000/svg">
<path d="M13.3335 10.6666V7.99992C13.3335 7.29267 13.6144 6.6144 14.1145 6.1143C14.6146 5.6142 15.2929 5.33325 16.0002 5.33325H25.3335C26.0407 5.33325 26.719 5.6142 27.2191 6.1143C27.7192 6.6144 28.0002 7.29267 28.0002 7.99992V23.9999C28.0002 24.7072 27.7192 25.3854 27.2191 25.8855C26.719 26.3856 26.0407 26.6666 25.3335 26.6666H16.0002C15.2929 26.6666 14.6146 26.3856 14.1145 25.8855C13.6144 25.3854 13.3335 24.7072 13.3335 23.9999V21.3333" stroke="#8393AC" stroke-width="2.66667" stroke-linecap="round" stroke-linejoin="round"/>
<path d="M20 16H4M4 16L8 12M4 16L8 20" stroke="#8393AC" stroke-width="2.66667" stroke-linecap="round" stroke-linejoin="round"/>
</svg>
