<svg width="32" height="32" viewBox="0 0 32 32" fill="none" xmlns="http://www.w3.org/2000/svg">
<path d="M15.9998 17.3334C16.7362 17.3334 17.3332 16.7365 17.3332 16.0001C17.3332 15.2637 16.7362 14.6667 15.9998 14.6667C15.2635 14.6667 14.6665 15.2637 14.6665 16.0001C14.6665 16.7365 15.2635 17.3334 15.9998 17.3334Z" stroke="#8393AC" stroke-width="2.66667" stroke-linecap="round" stroke-linejoin="round"/>
<path d="M15.9998 8.00004C16.7362 8.00004 17.3332 7.40309 17.3332 6.66671C17.3332 5.93033 16.7362 5.33337 15.9998 5.33337C15.2635 5.33337 14.6665 5.93033 14.6665 6.66671C14.6665 7.40309 15.2635 8.00004 15.9998 8.00004Z" stroke="#8393AC" stroke-width="2.66667" stroke-linecap="round" stroke-linejoin="round"/>
<path d="M15.9998 26.6667C16.7362 26.6667 17.3332 26.0697 17.3332 25.3333C17.3332 24.597 16.7362 24 15.9998 24C15.2635 24 14.6665 24.597 14.6665 25.3333C14.6665 26.0697 15.2635 26.6667 15.9998 26.6667Z" stroke="#8393AC" stroke-width="2.66667" stroke-linecap="round" stroke-linejoin="round"/>
</svg>
